<svg xmlns="http://www.w3.org/2000/svg" viewBox="856 150 132 310" role="img" aria-label="Una figura alcanza el anillo">
  <ellipse cx="912" cy="452" rx="66" ry="9" fill="#F2F0EB"/>
  <path d="M 908 452 C 874 452 862 422 866 374 C 870 322 882 272 902 240 C 916 218 940 212 954 226 C 968 240 968 268 960 308 C 950 356 948 400 944 422 C 940 446 930 452 908 452 Z" fill="#a21942"/>
  <path d="M 950 214 C 936 208 932 192 938 176 C 944 162 956 156 968 162 C 980 168 982 184 976 198 C 971 210 962 220 950 214 Z" fill="#fcc30b"/>
</svg>
