<svg xmlns="http://www.w3.org/2000/svg" viewBox="828 200 168 262" role="img" aria-label="Tres piedras apiladas que alcanzan el anillo">
  <ellipse cx="905" cy="452" rx="70" ry="9" fill="#F2F0EB"/>
  <path d="M 900 451 C 862 451 836 435 836 412 C 836 389 864 373 900 373 C 936 373 964 389 964 412 C 964 435 936 451 900 451 Z" fill="#a21942"/>
  <path d="M 902 366 C 874 366 850 352 850 332 C 850 312 874 298 902 298 C 930 298 954 312 954 332 C 954 352 930 366 902 366 Z" fill="#0a97d9"/>
  <path d="M 928 290 C 902 286 880 274 882 250 C 884 224 912 200 942 206 C 978 213 998 235 990 260 C 984 278 954 294 928 290 Z" fill="#fcc30b"/>
</svg>
