<svg xmlns="http://www.w3.org/2000/svg" viewBox="-68 -68 136 136" role="img" aria-label="Anillo de los 17 Objetivos de Desarrollo Sostenible">
  <path d="M 0.9 -64.0 A 64 64 0 0 1 22.3 -60.0 L 15.3 -41.2 A 44 44 0 0 0 0.6 -44.0 Z" fill="#e5243b"/>
  <path d="M 24.0 -59.3 A 64 64 0 0 1 42.5 -47.9 L 29.2 -32.9 A 44 44 0 0 0 16.5 -40.8 Z" fill="#dda63a"/>
  <path d="M 43.8 -46.7 A 64 64 0 0 1 56.9 -29.3 L 39.1 -20.2 A 44 44 0 0 0 30.1 -32.1 Z" fill="#4c9f38"/>
  <path d="M 57.7 -27.7 A 64 64 0 0 1 63.6 -6.8 L 43.8 -4.7 A 44 44 0 0 0 39.7 -19.1 Z" fill="#c5192d"/>
  <path d="M 63.8 -5.0 A 64 64 0 0 1 61.8 16.7 L 42.5 11.4 A 44 44 0 0 0 43.9 -3.4 Z" fill="#ff3a21"/>
  <path d="M 61.3 18.4 A 64 64 0 0 1 51.6 37.9 L 35.5 26.0 A 44 44 0 0 0 42.1 12.6 Z" fill="#26bde2"/>
  <path d="M 50.5 39.3 A 64 64 0 0 1 34.4 53.9 L 23.7 37.1 A 44 44 0 0 0 34.7 27.0 Z" fill="#fcc30b"/>
  <path d="M 32.9 54.9 A 64 64 0 0 1 12.6 62.7 L 8.7 43.1 A 44 44 0 0 0 22.6 37.7 Z" fill="#a21942"/>
  <path d="M 10.9 63.1 A 64 64 0 0 1 -10.9 63.1 L -7.5 43.4 A 44 44 0 0 0 7.5 43.4 Z" fill="#fd6925"/>
  <path d="M -12.6 62.7 A 64 64 0 0 1 -32.9 54.9 L -22.6 37.7 A 44 44 0 0 0 -8.7 43.1 Z" fill="#dd1367"/>
  <path d="M -34.4 53.9 A 64 64 0 0 1 -50.5 39.3 L -34.7 27.0 A 44 44 0 0 0 -23.7 37.1 Z" fill="#fd9d24"/>
  <path d="M -51.6 37.9 A 64 64 0 0 1 -61.3 18.4 L -42.1 12.6 A 44 44 0 0 0 -35.5 26.0 Z" fill="#bf8b2e"/>
  <path d="M -61.8 16.7 A 64 64 0 0 1 -63.8 -5.0 L -43.9 -3.4 A 44 44 0 0 0 -42.5 11.4 Z" fill="#3f7e44"/>
  <path d="M -63.6 -6.8 A 64 64 0 0 1 -57.7 -27.7 L -39.7 -19.1 A 44 44 0 0 0 -43.8 -4.7 Z" fill="#0a97d9"/>
  <path d="M -56.9 -29.3 A 64 64 0 0 1 -43.8 -46.7 L -30.1 -32.1 A 44 44 0 0 0 -39.1 -20.2 Z" fill="#56c02b"/>
  <path d="M -42.5 -47.9 A 64 64 0 0 1 -24.0 -59.3 L -16.5 -40.8 A 44 44 0 0 0 -29.2 -32.9 Z" fill="#00689d"/>
  <path d="M -22.3 -60.0 A 64 64 0 0 1 -0.9 -64.0 L -0.6 -44.0 A 44 44 0 0 0 -15.3 -41.2 Z" fill="#19486a"/>
</svg>
