<svg xmlns="http://www.w3.org/2000/svg" viewBox="0 0 100 100" role="img" aria-label="Anillo ODS">
  <path d="M 50.92 2.01 A 48 48 0 0 1 66.48 4.92 L 59.61 23.70 A 28 28 0 0 0 50.54 22.01 Z" fill="#e5243b"/>
  <path d="M 68.20 5.58 A 48 48 0 0 1 81.65 13.91 L 68.46 28.95 A 28 28 0 0 0 60.61 24.09 Z" fill="#dda63a"/>
  <path d="M 83.01 15.15 A 48 48 0 0 1 92.55 27.78 L 74.82 37.04 A 28 28 0 0 0 69.26 29.67 Z" fill="#4c9f38"/>
  <path d="M 93.37 29.43 A 48 48 0 0 1 97.70 44.65 L 77.83 46.88 A 28 28 0 0 0 75.30 38.00 Z" fill="#c5192d"/>
  <path d="M 97.87 46.49 A 48 48 0 0 1 96.41 62.25 L 77.07 57.14 A 28 28 0 0 0 77.93 47.95 Z" fill="#ff3a21"/>
  <path d="M 95.91 64.02 A 48 48 0 0 1 88.85 78.19 L 72.66 66.44 A 28 28 0 0 0 76.78 58.18 Z" fill="#26bde2"/>
  <path d="M 87.74 79.66 A 48 48 0 0 1 76.05 90.32 L 65.19 73.52 A 28 28 0 0 0 72.02 67.30 Z" fill="#fcc30b"/>
  <path d="M 74.48 91.29 A 48 48 0 0 1 59.72 97.00 L 55.67 77.42 A 28 28 0 0 0 64.28 74.08 Z" fill="#a21942"/>
  <path d="M 57.91 97.34 A 48 48 0 0 1 42.09 97.34 L 45.38 77.62 A 28 28 0 0 0 54.62 77.62 Z" fill="#fd6925"/>
  <path d="M 40.28 97.00 A 48 48 0 0 1 25.52 91.29 L 35.72 74.08 A 28 28 0 0 0 44.33 77.42 Z" fill="#dd1367"/>
  <path d="M 23.95 90.32 A 48 48 0 0 1 12.26 79.66 L 27.98 67.30 A 28 28 0 0 0 34.81 73.52 Z" fill="#fd9d24"/>
  <path d="M 11.15 78.19 A 48 48 0 0 1 4.09 64.02 L 23.22 58.18 A 28 28 0 0 0 27.34 66.44 Z" fill="#bf8b2e"/>
  <path d="M 3.59 62.25 A 48 48 0 0 1 2.13 46.49 L 22.07 47.95 A 28 28 0 0 0 22.93 57.14 Z" fill="#3f7e44"/>
  <path d="M 2.30 44.65 A 48 48 0 0 1 6.63 29.43 L 24.70 38.00 A 28 28 0 0 0 22.17 46.88 Z" fill="#0a97d9"/>
  <path d="M 7.45 27.78 A 48 48 0 0 1 16.99 15.15 L 30.74 29.67 A 28 28 0 0 0 25.18 37.04 Z" fill="#56c02b"/>
  <path d="M 18.35 13.91 A 48 48 0 0 1 31.80 5.58 L 39.39 24.09 A 28 28 0 0 0 31.54 28.95 Z" fill="#00689d"/>
  <path d="M 33.52 4.92 A 48 48 0 0 1 49.08 2.01 L 49.46 22.01 A 28 28 0 0 0 40.39 23.70 Z" fill="#19486a"/>
</svg>
